<svg width="15.000000" height="10.000000" viewBox="0 0 15 10" fill="none" xmlns="http://www.w3.org/2000/svg" xmlns:xlink="http://www.w3.org/1999/xlink">
	<desc>
			Created with Pixso.
	</desc>
	<defs/>
	<path d="M14.95 4.79C14.93 4.74 14.4 3.57 13.22 2.39C11.66 0.82 9.68 0 7.5 0C5.31 0 3.33 0.82 1.77 2.39C0.59 3.57 0.06 4.75 0.04 4.79C0.01 4.86 0 4.93 0 5C0 5.07 0.01 5.13 0.04 5.2C0.06 5.25 0.59 6.42 1.77 7.6C3.33 9.17 5.31 10 7.5 10C9.68 10 11.66 9.17 13.22 7.6C14.4 6.42 14.93 5.25 14.95 5.2C14.98 5.13 15 5.07 15 5C15 4.93 14.98 4.86 14.95 4.79ZM7.5 7.5C7 7.5 6.52 7.35 6.11 7.07C5.69 6.8 5.37 6.41 5.19 5.95C5 5.49 4.95 4.99 5.04 4.51C5.14 4.02 5.38 3.58 5.73 3.23C6.08 2.88 6.52 2.64 7.01 2.54C7.49 2.45 8 2.5 8.45 2.69C8.91 2.87 9.3 3.19 9.57 3.61C9.85 4.02 10 4.5 10 5C10 5.66 9.73 6.29 9.26 6.76C8.79 7.23 8.16 7.5 7.5 7.5Z" fill="#252623" fill-opacity="1.000000" fill-rule="nonzero"/>
</svg>
