<svg width="560.000000" height="920.000000" viewBox="0 0 560 920" fill="none" xmlns="http://www.w3.org/2000/svg" xmlns:xlink="http://www.w3.org/1999/xlink">
	<desc>
			Created with Pixso.
	</desc>
	<defs>
		<clipPath id="clip320_4906">
			<rect id="Login and Signup Illustration Image" rx="0.000000" width="559.000000" height="919.000000" transform="translate(0.500000 0.500000)" fill="white" fill-opacity="0"/>
		</clipPath>
	</defs>
	<rect id="Login and Signup Illustration Image" rx="0.000000" width="559.000000" height="919.000000" transform="translate(0.500000 0.500000)" fill="#201F24" fill-opacity="1.000000"/>
	<g clip-path="url(#clip320_4906)">
		<path id="Rectangle 28" d="M328 124.5L901 -215L901 -34.46L402 145L328 124.5Z" fill="#F2CDAC" fill-opacity="1.000000" fill-rule="nonzero"/>
		<path id="Rectangle 30" d="M211 119.8L430.51 -199L614 -79.87L273 137L211 119.8Z" fill="#626070" fill-opacity="1.000000" fill-rule="nonzero"/>
		<path id="Vector" d="M429.72 270.53C403.17 297.74 383.85 309.1 383.85 309.1L388.68 315.98C388.68 315.98 415.24 294.7 429.72 278.21L429.72 270.53Z" fill="#F8F4F0" fill-opacity="1.000000" fill-rule="nonzero"/>
		<path id="Vector" d="M388.68 316.62C388.68 316.62 388.36 316.62 388.36 316.46L383.53 309.58C383.53 309.58 383.53 309.42 383.53 309.26C383.53 309.1 383.53 309.1 383.69 308.94C383.85 308.94 403.17 297.26 429.4 270.37C429.4 270.37 429.72 270.21 429.89 270.37C430.05 270.37 430.21 270.69 430.21 270.85L430.21 278.53C430.21 278.53 430.21 278.69 430.21 278.85C415.88 295.34 389.33 316.62 389.16 316.78C389.16 316.78 389 316.78 388.84 316.78L388.68 316.62ZM384.66 309.26L388.84 315.34C392.22 312.62 415.88 293.26 429.24 278.05L429.24 271.81C405.42 295.82 387.56 307.5 384.66 309.42L384.66 309.26Z" fill="#101720" fill-opacity="1.000000" fill-rule="nonzero"/>
		<path id="Vector" d="M363.41 277.89C336.86 305.1 317.54 316.46 317.54 316.46L322.37 323.34C322.37 323.34 348.93 302.06 363.41 285.57L363.41 277.89Z" fill="#F8F4F0" fill-opacity="1.000000" fill-rule="nonzero"/>
		<path id="Vector" d="M322.37 323.82C322.37 323.82 322.05 323.82 322.05 323.66L317.22 316.78C317.22 316.78 317.22 316.62 317.22 316.46C317.22 316.3 317.22 316.3 317.38 316.14C317.54 316.14 336.86 304.46 363.09 277.57C363.09 277.57 363.41 277.41 363.57 277.57C363.74 277.57 363.9 277.89 363.9 278.05L363.9 285.73C363.9 285.73 363.9 285.89 363.9 286.05C349.57 302.54 323.01 323.82 322.85 323.98C322.85 323.98 322.69 323.98 322.53 323.98L322.37 323.82ZM318.35 316.62L322.53 322.7C325.91 319.98 349.57 300.62 362.93 285.41L362.93 279.17C339.11 303.18 321.24 314.86 318.35 316.78L318.35 316.62Z" fill="#101720" fill-opacity="1.000000" fill-rule="nonzero"/>
		<path id="Vector" d="M463.04 398.56C463.04 398.56 437.45 371.68 421.52 329.91C411.7 303.98 405.42 272.45 411.38 238.04C426.83 148.1 392.71 98.48 392.71 98.48L506.98 62.32C588.42 144.74 521.46 207.31 534.02 269.41C535.79 278.21 538.2 286.05 540.94 293.26C558 336.95 590.19 352.63 590.19 352.63L463.04 398.4L463.04 398.56Z" fill="#82C9D7" fill-opacity="1.000000" fill-rule="nonzero"/>
		<path id="Vector" d="M463.04 399.04L462.72 399.04C462.4 398.72 436.8 371.52 421.03 330.23C409.12 299.18 405.74 268.29 410.89 238.2C418.94 191.79 413.47 156.42 407.35 134.81C400.91 111.45 392.38 98.96 392.22 98.96C392.22 98.96 392.22 98.64 392.22 98.48C392.22 98.32 392.38 98.16 392.54 98.16L506.82 62C506.98 62 507.14 62 507.3 62C531.44 86.32 544.64 111.29 547.7 138.02C550.44 161.54 545.28 183.63 540.3 205.07C535.14 227.32 530.15 248.28 534.5 269.41C536.11 277.73 538.52 285.73 541.42 293.26C558.16 336.31 590.19 352.31 590.51 352.47C590.67 352.47 590.83 352.79 590.83 352.95C590.83 353.11 590.83 353.27 590.51 353.43L463.2 399.2C463.2 399.2 463.2 399.2 463.04 399.2L463.04 399.04ZM393.35 98.64C394.96 101.37 402.36 113.53 408.32 134.33C414.43 155.94 419.91 191.47 411.86 238.04C406.71 267.81 410.09 298.7 421.84 329.59C436.8 368.8 460.46 395.04 463.04 397.92L588.9 352.47C583.43 349.43 555.59 332.47 540.3 293.26C537.4 285.57 534.98 277.57 533.21 269.25C528.87 247.96 533.86 226.84 539.01 204.43C549.15 161.22 559.61 116.57 506.5 62.48L393.19 98.32L393.35 98.64Z" fill="#101720" fill-opacity="1.000000" fill-rule="nonzero"/>
		<path id="Vector" d="M560.74 348.31L467.39 381.92C459.5 372 445.18 351.83 435.04 325.58C431.98 317.9 429.4 309.74 427.31 300.94C422.48 280.45 421.84 259.97 425.22 240.28C431.33 204.43 430.85 170.5 423.61 139.46C420.39 125.69 416.37 114.65 412.82 106.65L502.47 78.32C517.76 95.12 527.1 111.93 531.12 129.37C536.92 154.18 531.44 177.07 525.81 201.55C520.5 224.28 515.03 247.8 519.86 272.13C520.18 273.73 520.5 275.17 520.82 276.77C522.59 284.13 524.68 291.01 527.1 297.42C530.32 306.06 534.34 313.74 538.36 320.46C545.45 332.31 553.49 341.43 560.74 348.15L560.74 348.31Z" fill="#82C9D7" fill-opacity="1.000000" fill-rule="nonzero"/>
		<path id="Vector" d="M467.39 382.4C467.39 382.4 467.07 382.4 467.07 382.24C459.34 372.48 444.85 352.31 434.71 325.9C431.5 317.74 428.92 309.42 426.99 301.26C422.16 280.61 421.52 260.13 424.9 240.44C431.01 204.75 430.53 170.82 423.29 139.78C420.71 128.09 417.01 117.21 412.5 107.13L412.5 106.81C412.5 106.81 412.66 106.65 412.83 106.49L502.47 78.16C502.63 78.16 502.8 78.16 502.96 78.16C518.25 94.96 527.58 111.77 531.77 129.53C537.56 154.5 532.09 177.55 526.46 201.87L526.46 202.67C521.14 225.24 515.67 248.44 520.5 272.29C520.82 273.73 520.98 275.01 521.31 276.29L521.31 276.93C523.08 283.81 525.17 290.85 527.74 297.58C530.8 305.42 534.34 312.94 539.01 320.62C545.29 331.03 552.69 340.31 561.22 348.31C561.22 348.31 561.38 348.63 561.22 348.79C561.06 348.95 561.22 349.11 560.9 349.11L467.55 382.72C467.55 382.72 467.55 382.72 467.39 382.72L467.39 382.4ZM413.63 107.13C417.98 117.05 421.68 128.09 424.25 139.46C431.5 170.66 431.98 204.59 425.86 240.44C422.48 259.97 423.13 280.29 427.95 300.94C429.89 309.1 432.46 317.42 435.52 325.42C445.66 351.51 459.82 371.52 467.55 381.28L559.77 347.99C551.56 340.15 544.16 330.87 538.04 320.62C533.54 312.94 529.84 305.42 526.78 297.42C524.2 290.7 522.11 283.65 520.5 276.77L520.5 276.13C520.02 274.85 519.86 273.57 519.53 272.13C514.71 248.12 520.02 224.76 525.33 202.19L525.33 201.39C531.28 177.23 536.59 154.34 530.8 129.53C526.78 112.09 517.44 95.44 502.47 78.8L413.63 106.97L413.63 107.13Z" fill="#101720" fill-opacity="1.000000" fill-rule="nonzero"/>
		<path id="Vector" d="M590.19 352.79L462.88 398.56C462.88 398.56 437.29 371.68 421.35 329.91L435.04 325.58C445.18 351.83 459.5 372 467.39 381.92L560.74 348.31C553.49 341.43 545.61 332.31 538.36 320.62C534.34 313.74 530.48 306.22 527.1 297.58L540.78 293.42C557.84 337.27 590.19 352.79 590.19 352.79Z" fill="#F2CDAC" fill-opacity="1.000000" fill-rule="nonzero"/>
		<path id="Vector" d="M463.04 399.04L462.72 399.04C462.4 398.72 436.97 371.68 421.03 330.23C421.03 330.07 421.03 329.75 421.36 329.59L435.04 325.42C435.36 325.42 435.52 325.42 435.68 325.74C445.82 351.83 459.98 371.84 467.71 381.6L559.93 348.31C551.72 340.47 544.32 331.19 538.2 320.94C533.7 313.26 530 305.74 526.94 297.74L526.94 297.42C526.94 297.42 527.1 297.26 527.26 297.1L540.94 292.94C541.26 292.94 541.42 292.94 541.58 293.26C550.44 315.82 563.31 330.71 572.49 339.19C582.46 348.47 590.51 352.31 590.67 352.47C590.84 352.47 591 352.79 591 352.95C591 353.11 591 353.27 590.67 353.43L463.36 399.2C463.36 399.2 463.36 399.2 463.2 399.2L463.04 399.04ZM422 330.07C436.97 368.96 460.63 395.2 463.04 397.92L588.9 352.63C586.49 351.35 579.57 347.19 571.52 339.83C562.19 331.35 549.31 316.46 540.46 293.9L527.74 297.74C530.64 305.42 534.34 312.78 538.69 320.3C544.96 330.71 552.37 339.99 560.9 347.99C560.9 347.99 561.06 348.31 560.9 348.47C560.74 348.63 560.9 348.79 560.58 348.79L467.23 382.4C467.07 382.4 466.74 382.4 466.74 382.24C459.02 372.64 444.69 352.47 434.55 326.22L421.84 330.07L422 330.07Z" fill="#101720" fill-opacity="1.000000" fill-rule="nonzero"/>
		<path id="Vector" d="M475.75 279.17C445.34 286.21 420.23 274.05 419.42 252.12C418.62 230.2 442.76 206.83 473.18 199.79C503.6 192.75 528.71 204.91 529.51 226.84C530.32 248.76 506.17 272.13 475.75 279.17Z" fill="#F2CDAC" fill-opacity="1.000000" fill-rule="nonzero"/>
		<path id="Vector" d="M459.18 281.57C447.75 281.57 437.45 278.69 430.05 273.09C423.13 267.81 419.26 260.61 419.1 252.12C418.3 230.04 442.6 206.35 473.18 199.31C491.21 195.15 508.27 197.71 519.05 205.87C525.97 211.15 529.83 218.36 530 226.84C530.8 248.92 506.5 272.61 475.92 279.65C470.12 280.93 464.49 281.57 459.18 281.57ZM489.92 198.35C484.61 198.35 478.97 198.99 473.34 200.27C443.24 207.15 419.26 230.36 420.07 252.12C420.39 260.29 424.09 267.17 430.69 272.29C441.15 280.29 458.05 282.69 475.76 278.69C505.85 271.81 529.83 248.6 529.03 226.84C528.71 218.68 525.01 211.79 518.41 206.67C511.16 201.23 501.19 198.35 489.92 198.35Z" fill="#101720" fill-opacity="1.000000" fill-rule="nonzero"/>
		<path id="Vector" d="M519.05 119.61C518.89 119.61 518.73 119.61 518.57 119.29C511.81 99.77 494.59 82.48 494.43 82.32C494.26 82.16 494.26 81.84 494.43 81.68C494.59 81.52 494.91 81.52 495.07 81.68C495.23 81.84 512.61 99.28 519.37 118.97C519.37 119.29 519.37 119.45 519.05 119.61C519.05 119.61 519.05 119.61 518.89 119.61L519.05 119.61Z" fill="#101720" fill-opacity="1.000000" fill-rule="nonzero"/>
		<path id="Vector" d="M508.43 123.13C508.27 123.13 508.11 123.13 507.95 122.81C501.67 102.33 485.41 85.36 485.25 85.04C485.09 84.88 485.09 84.56 485.25 84.4C485.41 84.24 485.73 84.24 485.9 84.4C486.06 84.56 502.47 101.85 508.75 122.49C508.75 122.81 508.75 122.97 508.43 123.13Z" fill="#101720" fill-opacity="1.000000" fill-rule="nonzero"/>
		<path id="Vector" d="M497.81 126.65C497.65 126.65 497.48 126.65 497.32 126.33C491.37 104.89 476.24 88.08 476.08 87.92C475.92 87.76 475.92 87.44 476.08 87.28C476.24 87.12 476.56 87.28 476.72 87.28C476.88 87.44 492.17 104.41 498.29 126.01C498.29 126.33 498.29 126.49 497.97 126.65L497.81 126.65Z" fill="#101720" fill-opacity="1.000000" fill-rule="nonzero"/>
		<path id="Vector" d="M487.02 130.17C486.86 130.17 486.54 130.17 486.54 129.85C480.91 107.45 466.74 90.8 466.58 90.64C466.42 90.48 466.58 90.16 466.58 90C466.74 89.84 467.06 90 467.22 90C467.22 90 481.71 106.97 487.34 129.53C487.34 129.85 487.34 130.01 487.02 130.17Z" fill="#101720" fill-opacity="1.000000" fill-rule="nonzero"/>
		<path id="Vector" d="M476.4 133.69C476.24 133.69 475.92 133.69 475.92 133.37C470.77 110.01 457.57 93.68 457.41 93.52C457.25 93.36 457.41 93.04 457.41 92.88C457.57 92.88 457.89 92.88 458.05 92.88C458.05 92.88 471.57 109.53 476.72 133.21C476.72 133.53 476.72 133.69 476.4 133.85L476.4 133.69Z" fill="#101720" fill-opacity="1.000000" fill-rule="nonzero"/>
		<path id="Vector" d="M465.78 137.21C465.62 137.21 465.29 137.21 465.29 136.89C460.47 112.57 448.39 96.4 448.23 96.24C448.07 96.08 448.23 95.76 448.23 95.6C448.23 95.44 448.72 95.6 448.88 95.6C448.88 95.6 461.27 112.09 466.1 136.57C466.1 136.89 466.1 137.06 465.78 137.06L465.78 137.21Z" fill="#101720" fill-opacity="1.000000" fill-rule="nonzero"/>
		<path id="Vector" d="M454.99 140.74C454.83 140.74 454.51 140.74 454.51 140.42C450 115.13 438.9 99.28 438.74 99.12C438.58 98.96 438.74 98.64 438.74 98.48C438.74 98.32 439.22 98.48 439.38 98.48C439.38 98.48 450.81 114.81 455.32 140.25C455.32 140.58 455.32 140.74 454.99 140.74Z" fill="#101720" fill-opacity="1.000000" fill-rule="nonzero"/>
		<path id="Vector" d="M444.37 144.26C444.21 144.26 443.89 144.1 443.89 143.94C439.86 117.69 429.72 102.01 429.56 101.85C429.56 101.69 429.56 101.37 429.56 101.21C429.72 101.21 430.05 101.21 430.21 101.21C430.21 101.21 440.67 117.21 444.69 143.62C444.69 143.94 444.69 144.1 444.37 144.1L444.37 144.26Z" fill="#101720" fill-opacity="1.000000" fill-rule="nonzero"/>
		<path id="Vector" d="M433.75 147.78C433.59 147.78 433.27 147.62 433.27 147.3C429.56 120.09 420.39 104.57 420.39 104.41C420.39 104.25 420.39 103.93 420.55 103.77C420.71 103.61 421.03 103.77 421.19 103.77C421.19 103.77 430.53 119.61 434.23 146.98C434.23 147.3 434.23 147.46 433.75 147.46L433.75 147.78Z" fill="#101720" fill-opacity="1.000000" fill-rule="nonzero"/>
		<path id="Vector" d="M532.73 261.25C555.26 264.93 545.45 290.54 506.98 318.38L517.12 322.54C517.12 322.54 534.82 310.54 548.18 291.82C561.54 273.09 553.01 256.45 532.25 254.37L532.57 261.09L532.73 261.25Z" fill="#F8F4F0" fill-opacity="1.000000" fill-rule="nonzero"/>
		<path id="Vector" d="M517.12 323.02C517.12 323.02 517.12 323.02 516.96 323.02L506.82 318.86C506.66 318.86 506.5 318.7 506.5 318.54C506.5 318.38 506.5 318.22 506.66 318.06C531.93 299.82 546.57 280.93 543.84 270.05C542.87 265.73 538.85 262.85 532.57 261.89C532.41 261.89 532.25 261.73 532.25 261.41L531.93 254.69L531.93 254.37C531.93 254.37 532.09 254.37 532.25 254.37C542.39 255.33 550.11 259.97 553.33 267.01C556.71 274.37 554.94 283.49 548.51 292.62C535.31 311.02 517.44 323.34 517.28 323.34C517.28 323.34 517.12 323.34 516.96 323.34L517.12 323.02ZM507.95 318.22L517.12 322.06C519.21 320.62 535.47 308.94 547.86 291.66C554.14 282.85 555.91 274.21 552.69 267.01C549.63 260.45 542.55 255.97 533.05 255.01L533.38 260.77C539.81 261.89 543.84 264.93 544.96 269.73C547.7 281.09 533.54 299.66 508.11 318.22L507.95 318.22Z" fill="#101720" fill-opacity="1.000000" fill-rule="nonzero"/>
		<path id="Vector" d="M403.81 165.86C375.16 180.27 363.9 192.91 363.9 192.91L369.85 197.71L403.81 165.86Z" fill="#F8F4F0" fill-opacity="1.000000" fill-rule="nonzero"/>
		<path id="Vector" d="M370.01 198.19C370.01 198.19 369.85 198.19 369.69 198.19L363.74 193.39C363.74 193.39 363.57 193.23 363.57 193.07C363.57 192.91 363.57 192.75 363.57 192.75C363.57 192.75 375.16 179.79 403.65 165.7C403.81 165.7 404.13 165.7 404.29 165.86C404.29 166.02 404.29 166.34 404.29 166.5L370.33 198.35C370.33 198.35 370.17 198.35 370.01 198.35L370.01 198.19ZM364.7 192.75L369.85 196.91L401.08 167.78C377.58 179.95 366.63 190.67 364.7 192.75Z" fill="#101720" fill-opacity="1.000000" fill-rule="nonzero"/>
		<path id="Vector" d="M414.75 336.47C388.2 363.67 368.88 375.04 368.88 375.04L373.71 381.92C373.71 381.92 400.27 360.63 414.75 344.15L414.75 336.47Z" fill="#F8F4F0" fill-opacity="1.000000" fill-rule="nonzero"/>
		<path id="Vector" d="M373.71 382.4C373.71 382.4 373.39 382.4 373.39 382.24L368.56 375.36C368.56 375.36 368.56 375.2 368.56 375.04C368.56 374.88 368.56 374.88 368.72 374.72C368.89 374.72 388.2 363.03 414.43 336.15C414.43 336.15 414.76 335.99 414.92 336.15C415.08 336.15 415.24 336.47 415.24 336.63L415.24 344.31C415.24 344.31 415.24 344.47 415.24 344.63C400.91 361.11 374.36 382.24 374.2 382.56C374.2 382.56 374.04 382.56 373.87 382.56L373.71 382.4ZM369.69 375.2L373.87 381.28C377.25 378.56 400.91 359.19 414.27 343.99L414.27 337.75C390.45 361.75 372.59 373.44 369.69 375.36L369.69 375.2Z" fill="#101720" fill-opacity="1.000000" fill-rule="nonzero"/>
		<path id="Vector" d="M503.6 335.83C477.04 363.03 457.73 374.4 457.73 374.4L462.56 381.28C462.56 381.28 489.11 359.99 503.6 343.51L503.6 335.83Z" fill="#F8F4F0" fill-opacity="1.000000" fill-rule="nonzero"/>
		<path id="Vector" d="M462.56 381.76C462.56 381.76 462.24 381.76 462.24 381.6L457.41 374.72C457.41 374.72 457.41 374.56 457.41 374.4C457.41 374.24 457.41 374.24 457.57 374.08C457.73 374.08 477.04 362.39 503.28 335.51C503.28 335.51 503.6 335.35 503.76 335.51C503.92 335.51 504.08 335.83 504.08 335.99L504.08 343.67C504.08 343.67 504.08 343.83 504.08 343.99C489.76 360.47 463.2 381.6 463.04 381.92C463.04 381.92 462.88 381.92 462.72 381.92L462.56 381.76ZM458.53 374.56L462.72 380.64C466.1 377.92 489.76 358.55 503.12 343.35L503.12 337.11C479.3 361.11 461.43 372.8 458.53 374.72L458.53 374.56Z" fill="#101720" fill-opacity="1.000000" fill-rule="nonzero"/>
		<path id="Vector" d="M571.52 330.23C580.53 338.87 569.27 363.99 554.62 381.92L560.74 386.88C560.74 386.88 588.26 359.19 577.32 330.23L571.52 330.23Z" fill="#F8F4F0" fill-opacity="1.000000" fill-rule="nonzero"/>
		<path id="Vector" d="M560.74 387.36C560.74 387.36 560.58 387.36 560.41 387.36L554.3 382.4C554.14 382.24 554.14 381.92 554.3 381.76C569.27 363.67 579.89 338.87 571.2 330.71C571.2 330.71 571.04 330.39 571.2 330.23C571.2 330.07 571.52 329.91 571.68 329.91L577.48 329.91C577.64 329.91 577.8 329.91 577.96 330.23C588.9 359.19 561.54 387.2 561.22 387.36C561.22 387.36 561.06 387.36 560.9 387.36L560.74 387.36ZM555.26 381.92L560.74 386.4C563.63 383.2 586.81 357.59 576.99 330.87L572.65 330.87C577.15 336.31 575.06 345.75 572.49 352.95C569.11 362.23 562.83 372.8 555.26 382.08L555.26 381.92Z" fill="#101720" fill-opacity="1.000000" fill-rule="nonzero"/>
		<path id="Vector" d="M156.11 233.56L154.18 257.41L179.93 254.21L178.32 241.88C182.67 241.24 190.07 239.48 193.61 234.68C198.76 227.8 195.38 214.04 195.38 214.04C195.38 214.04 200.69 212.59 199.89 209.39C198.92 206.35 194.58 206.83 194.58 206.83C192.48 199.15 186.85 184.27 186.85 184.27L149.83 191.95C149.83 191.95 150.64 197.71 151.6 205.23C152.09 208.27 147.42 211.95 147.9 215.32C148.38 218.52 154.02 221.24 154.5 223.96C155.14 228.12 155.79 231.48 156.27 233.56L156.11 233.56Z" fill="#FF7E6D" fill-opacity="1.000000" fill-rule="nonzero"/>
		<mask id="mask320_4945" mask-type="alpha" maskUnits="userSpaceOnUse" x="147.874023" y="184.271973" width="52.104736" height="73.138916">
			<path id="Vector" d="M156.11 233.72L154.18 257.41L179.93 254.21L178.32 241.88C182.67 241.24 190.07 239.48 193.61 234.68C198.76 227.8 195.38 213.88 195.38 213.88C195.38 213.88 200.7 212.43 199.89 209.23C198.93 206.19 194.58 206.67 194.58 206.67C192.49 198.99 186.85 184.27 186.85 184.27L149.84 191.95C149.84 191.95 150.64 197.71 151.61 205.23C152.09 208.27 147.42 211.95 147.9 215.32C148.39 218.52 154.02 221.24 154.5 224.12C155.15 228.28 155.79 231.64 156.27 233.72L156.11 233.72Z" fill="#000000" fill-opacity="1.000000" fill-rule="nonzero"/>
		</mask>
		<g mask="url(#mask320_4945)">
			<path id="Vector" d="M193.61 234.68C188.3 238.84 172.69 235.96 167.7 230.04C162.71 224.12 169.31 218.04 168.02 211.31C166.73 204.59 163.68 195.63 163.68 195.63L146.29 212.91L155.63 240.28C155.63 240.28 168.51 243.48 171.89 248.44C175.26 253.41 171.24 260.29 171.24 260.29L191.84 252.61L193.61 234.68Z" fill="#008FB1" fill-opacity="1.000000" fill-rule="nonzero"/>
		</g>
		<path id="Vector" d="M154.02 257.89C154.02 257.89 153.86 257.89 153.7 257.89C153.7 257.89 153.54 257.73 153.7 257.57L155.63 233.88C155.31 231.96 154.67 228.76 153.86 224.28C153.7 223 152.25 221.72 150.96 220.44C149.35 219 147.74 217.4 147.42 215.48C147.1 213.71 148.23 211.79 149.35 209.87C150.32 208.27 151.28 206.67 151.12 205.39C150.16 198.03 149.35 192.11 149.35 192.11C149.35 191.79 149.35 191.63 149.67 191.63L186.69 183.95C186.85 183.95 187.18 183.95 187.18 184.27C187.18 184.27 192.65 198.83 194.9 206.35C196.03 206.35 199.41 206.35 200.21 209.23C200.37 210.03 200.21 210.67 200.05 211.47C199.09 213.07 196.99 214.04 196.03 214.36C196.51 216.76 198.93 228.6 194.1 235C190.56 239.64 183.31 241.56 178.97 242.2L180.42 254.05L180.42 254.37C180.42 254.37 180.26 254.53 180.09 254.53L154.34 257.73L154.02 257.89ZM150.32 192.43C150.48 193.87 151.28 198.99 152.09 205.23C152.25 206.83 151.28 208.59 150.16 210.35C149.19 211.95 148.07 213.71 148.39 215.32C148.55 216.76 150.16 218.2 151.61 219.64C153.22 221.08 154.67 222.52 154.83 223.96C155.47 228.44 156.11 231.64 156.6 233.56L154.67 256.93L179.45 253.89L178 242.04C178 242.04 178 242.04 178 241.88C178 241.72 178.16 241.56 178.32 241.4C182.51 240.76 189.75 239.16 193.29 234.52C198.28 227.8 195.06 214.36 195.06 214.19C195.06 213.87 195.06 213.71 195.39 213.55C195.39 213.55 198.44 212.75 199.41 210.99C199.73 210.51 199.73 210.03 199.57 209.55C198.77 206.99 194.9 207.31 194.9 207.31C194.74 207.31 194.42 207.31 194.42 206.99C192.49 200.11 187.66 187.31 186.85 184.91L150.64 192.43L150.32 192.43Z" fill="#101720" fill-opacity="1.000000" fill-rule="nonzero"/>
		<path id="Vector" d="M190.23 204.59C190.23 204.59 187.82 201.23 183.31 202.51C178.8 203.79 178.48 206.83 178.48 206.83C178.48 206.83 180.9 210.19 185.08 209.23C189.27 208.27 190.23 204.59 190.23 204.59Z" fill="#F8F4F0" fill-opacity="1.000000" fill-rule="nonzero"/>
		<mask id="mask320_4952" mask-type="alpha" maskUnits="userSpaceOnUse" x="178.487305" y="202.225586" width="11.749268" height="7.185059">
			<path id="Vector" d="M190.23 204.59C190.23 204.59 187.82 201.23 183.31 202.51C178.8 203.79 178.48 206.83 178.48 206.83C178.48 206.83 180.9 210.19 185.08 209.23C189.27 208.27 190.23 204.75 190.23 204.75L190.23 204.59Z" fill="#000000" fill-opacity="1.000000" fill-rule="nonzero"/>
		</mask>
		<g mask="url(#mask320_4952)">
			<path id="Vector" d="M189.27 206.19C189.27 207.87 187.9 209.23 186.21 209.23C184.52 209.23 183.15 207.87 183.15 206.19C183.15 204.51 184.52 203.15 186.21 203.15C187.9 203.15 189.27 204.51 189.27 206.19Z" fill="#101720" fill-opacity="1.000000" fill-rule="evenodd"/>
		</g>
		<path id="Vector" d="M185.24 226.04C184.76 226.04 184.28 226.04 183.96 225.72C182.67 225.08 181.86 223.8 181.7 222.04C181.7 221.72 181.86 221.56 182.19 221.56C182.51 221.56 182.67 221.72 182.67 222.04C182.67 223.48 183.31 224.44 184.28 224.92C185.08 225.24 186.05 225.08 187.01 224.44C187.17 224.28 187.5 224.44 187.66 224.44C187.82 224.44 187.66 224.92 187.66 225.08C187.01 225.56 186.21 225.88 185.4 225.88L185.24 226.04Z" fill="#101720" fill-opacity="1.000000" fill-rule="nonzero"/>
		<path id="Vector" d="M178.16 202.35C178.16 202.35 178.16 202.35 178 202.35C177.84 202.35 177.68 201.87 177.84 201.71C178.64 200.11 180.41 198.99 182.67 198.35C185.08 197.71 187.5 198.19 189.1 199.47C189.27 199.63 189.43 199.95 189.1 200.11C188.78 200.27 188.62 200.43 188.46 200.11C187.01 199.15 184.92 198.67 182.83 199.15C180.9 199.63 179.29 200.59 178.64 201.87C178.64 202.03 178.32 202.19 178.16 202.19L178.16 202.35Z" fill="#101720" fill-opacity="1.000000" fill-rule="nonzero"/>
		<path id="Vector" d="M183.31 202.35C183.31 202.35 181.06 202.83 179.77 204.27C178.49 205.71 178 206.99 177.52 207.31L178.32 207.95C178.32 207.95 180.26 203.47 183.47 202.35L183.31 202.35Z" fill="#101720" fill-opacity="1.000000" fill-rule="nonzero"/>
		<path id="Vector" d="M137.92 216.92C138.57 218.04 139.37 219 140.02 220.12C148.71 233.24 155.15 243.8 155.15 243.8L157.24 223.16C154.5 223.32 147.58 217.72 151.45 211.31C154.66 206.03 160.3 213.23 162.07 214.36C162.39 214.52 162.71 214.68 163.03 214.68C163.36 214.68 163.52 214.04 163.52 213.71C164.32 208.75 163.84 203.63 162.07 198.83C164.8 198.51 167.7 198.19 170.28 197.23C172.85 196.27 175.27 194.51 176.39 191.95C176.39 191.79 176.55 191.47 176.71 191.31C176.71 191.31 187.01 194.83 192.17 187.47C197.32 179.95 190.88 177.23 190.88 177.23C190.88 177.23 180.74 166.5 168.67 167.94C121.19 173.86 142.11 188.91 142.11 188.91C142.11 188.91 127.46 201.87 137.76 216.92L137.92 216.92Z" fill="#82C9D7" fill-opacity="1.000000" fill-rule="nonzero"/>
		<path id="Vector" d="M155.31 244.28C155.14 244.28 154.98 244.28 154.82 244.12C154.82 244.12 148.22 233.4 139.69 220.44C139.21 219.64 138.73 218.84 138.08 218.2L137.44 217.4C128.11 203.47 139.21 191.47 141.46 189.07C140.02 187.95 136.31 184.43 137.28 180.11C138.73 174.18 149.35 170.02 168.67 167.62C180.25 166.18 190.39 175.94 191.2 176.91C191.68 177.07 193.77 178.35 194.58 180.75C195.22 182.83 194.58 185.23 192.65 187.95C187.82 194.83 178.97 192.75 177.03 192.11L177.03 192.43C175.75 194.83 173.49 196.91 170.44 198.03C167.86 198.99 165.29 199.31 162.71 199.47C164.16 204.11 164.64 209.07 163.84 214.04C163.84 214.36 163.67 215.16 163.03 215.32C162.55 215.48 161.91 215.32 161.58 215C161.26 214.84 160.62 214.19 159.97 213.55C158.36 212.11 155.79 209.71 153.86 210.03C153.05 210.03 152.25 210.67 151.6 211.79C149.83 214.84 150.64 217.4 151.6 219.16C153.21 221.72 155.79 223 156.92 223L157.24 223C157.24 223 157.24 223.16 157.24 223.32L155.14 243.96C155.14 244.12 154.98 244.28 154.82 244.44L155.31 244.28ZM171.08 168.26C170.27 168.26 169.63 168.26 168.83 168.26C145.33 171.14 139.21 176.27 138.25 180.11C137.12 184.43 142.43 188.27 142.43 188.43C142.43 188.43 142.59 188.59 142.59 188.75C142.59 188.91 142.59 189.07 142.43 189.07C142.43 189.07 138.89 192.27 136.48 197.23C133.42 203.79 133.9 210.35 138.08 216.44L138.73 217.24C139.21 218.04 139.69 218.84 140.34 219.48C147.26 229.88 152.89 238.84 154.82 241.88L156.59 223.16C154.98 223 152.41 221.4 150.96 219C149.35 216.28 149.19 213.39 150.96 210.67C151.77 209.39 152.73 208.75 153.86 208.59C156.27 208.27 159.01 210.83 160.78 212.43C161.42 213.07 161.91 213.39 162.23 213.71C162.23 213.71 162.71 214.04 162.71 213.87C162.87 213.87 162.87 213.39 163.03 213.23C163.67 208.43 163.35 203.31 161.74 198.67C161.74 198.67 161.74 198.35 161.74 198.19C161.74 198.03 161.91 198.03 162.07 198.03C164.64 197.71 167.54 197.55 170.11 196.59C172.85 195.63 175.1 193.71 176.07 191.63C176.07 191.31 176.39 190.99 176.55 190.83C176.55 190.67 176.87 190.67 177.03 190.83C177.2 190.99 187.01 194.19 191.84 187.15C193.45 184.75 194.1 182.67 193.61 180.75C192.97 178.51 190.72 177.55 190.72 177.55C190.72 177.55 190.72 177.55 190.55 177.55C190.55 177.55 181.7 168.26 171.08 168.26Z" fill="#101720" fill-opacity="1.000000" fill-rule="nonzero"/>
		<path id="Vector" d="M177.04 191.79L176.88 191.79C176.71 191.79 176.55 191.31 176.71 191.15C178.49 187.95 178.49 185.87 178.49 185.87C178.49 185.55 178.65 185.39 178.97 185.39C179.29 185.39 179.45 185.55 179.45 185.87C179.45 186.19 179.45 188.27 177.68 191.63C177.68 191.79 177.36 191.95 177.2 191.95L177.04 191.79Z" fill="#101720" fill-opacity="1.000000" fill-rule="nonzero"/>
		<path id="Vector" d="M140.02 220.12C148.71 233.24 155.14 243.8 155.14 243.8L157.24 223.16C154.5 223.32 147.58 217.72 151.44 211.31C154.66 206.03 160.29 213.24 162.07 214.36C162.39 214.52 162.71 214.68 163.03 214.68C163.35 214.68 163.51 214.04 163.51 213.71C164.32 208.75 163.84 203.63 162.07 198.83C156.43 199.47 143.72 199.47 143.72 199.47C143.72 199.47 145.49 203.47 146.61 209.39C147.42 213.71 142.59 218.04 140.02 220.12Z" fill="#101720" fill-opacity="1.000000" fill-rule="nonzero"/>
		<path id="Vector" d="M155.31 244.28C155.15 244.28 154.99 244.28 154.83 244.12C154.83 244.12 148.23 233.4 139.7 220.44C139.7 220.28 139.7 219.96 139.7 219.8C141.95 218.04 146.94 213.71 146.13 209.55C145.01 203.79 143.24 199.79 143.24 199.79C143.24 199.79 143.24 199.47 143.24 199.31C143.24 199.15 143.4 199.15 143.56 199.15C143.56 199.15 156.44 199.15 161.91 198.51C162.07 198.51 162.39 198.51 162.39 198.83C164 203.63 164.48 208.91 163.84 213.87C163.84 214.19 163.68 215 163.03 215.16C162.55 215.32 161.91 215.16 161.59 214.84C161.26 214.68 160.62 214.03 159.98 213.39C158.37 211.95 155.79 209.55 153.86 209.87C153.06 209.87 152.25 210.51 151.61 211.63C149.84 214.68 150.64 217.24 151.61 219C153.22 221.56 155.79 222.84 156.92 222.84L157.24 222.84C157.24 222.84 157.24 223 157.24 223.16L155.15 243.8C155.15 243.96 154.99 244.12 154.83 244.28L155.31 244.28ZM140.66 220.28C147.42 230.52 152.89 239.32 154.83 242.36L156.6 223.64C154.99 223.48 152.41 221.88 150.96 219.48C149.35 216.76 149.19 213.87 150.96 211.15C151.77 209.87 152.73 209.23 153.86 209.07C156.27 208.75 159.01 211.31 160.78 212.91C161.42 213.55 161.91 213.87 162.23 214.19C162.23 214.19 162.71 214.52 162.71 214.35C162.87 214.35 162.87 213.87 163.03 213.71C163.68 208.91 163.36 204.11 161.75 199.47C156.76 199.95 147.1 200.11 144.36 200.11C144.85 201.55 146.13 204.91 147.1 209.39C147.91 213.71 143.56 217.88 140.66 220.28Z" fill="#101720" fill-opacity="1.000000" fill-rule="nonzero"/>
		<path id="Vector" d="M174.94 242.68C167.54 242.68 163.03 238.2 162.87 238.04C162.71 237.88 162.71 237.56 162.87 237.4C163.03 237.24 163.35 237.24 163.52 237.4C163.52 237.4 169.31 243 178.32 241.4C178.64 241.4 178.81 241.4 178.97 241.72C179.13 242.04 178.97 242.2 178.64 242.36C177.36 242.52 176.23 242.68 175.1 242.68L174.94 242.68Z" fill="#101720" fill-opacity="1.000000" fill-rule="nonzero"/>
		<path id="Vector" d="M158.85 216.76C158.69 216.76 158.53 216.76 158.37 216.6C157.08 214.36 155.47 213.71 154.82 213.39C154.18 213.23 153.54 213.39 153.05 213.55C152.89 213.55 152.57 213.55 152.41 213.55C152.25 213.55 152.41 213.07 152.41 212.91C153.05 212.59 154.02 212.43 154.82 212.59C156.43 212.91 157.88 214.19 159.01 216.12C159.01 216.28 159.01 216.6 158.85 216.76Z" fill="#101720" fill-opacity="1.000000" fill-rule="nonzero"/>
		<path id="Vector" d="M155.63 219.16C155.63 219.16 155.31 219.16 155.31 219C153.37 216.6 154.5 212.91 154.5 212.75C154.5 212.43 154.82 212.43 155.14 212.43C155.47 212.43 155.47 212.75 155.47 213.07C155.47 213.07 154.5 216.44 156.11 218.36C156.27 218.52 156.11 218.84 156.11 219C156.11 219 155.95 219 155.79 219L155.63 219.16Z" fill="#101720" fill-opacity="1.000000" fill-rule="nonzero"/>
		<path id="Vector" d="M196.83 174.34L191.04 177.23C192.97 176.27 194.9 175.3 196.83 174.34Z" fill="#F2CDAC" fill-opacity="1.000000" fill-rule="nonzero"/>
		<path id="Vector" d="M191.04 177.55C190.88 177.55 190.71 177.55 190.55 177.23C190.55 177.07 190.55 176.75 190.71 176.59C192.49 175.62 194.58 174.66 196.51 173.7C196.67 173.7 196.99 173.7 197.15 173.86C197.15 174.02 197.15 174.34 196.99 174.5L191.2 177.39C191.2 177.39 191.2 177.39 191.04 177.39L191.04 177.55Z" fill="#101720" fill-opacity="1.000000" fill-rule="nonzero"/>
		<path id="Vector" d="M189.1 190.67C189.27 190.35 192.65 185.87 193.45 182.03C193.93 179.79 192 177.87 189.75 178.03C188.3 178.19 186.53 178.67 185.08 179.47C184.76 179.47 184.44 179.79 184.12 179.79L183.31 180.11C181.54 180.91 180.25 181.71 179.93 181.87C158.36 193.23 134.06 207.15 134.06 207.15C134.06 207.15 124.08 186.03 137.28 173.06C146.94 163.62 161.74 159.94 171.56 160.74C175.26 161.06 178.32 162.02 179.93 163.46C183.15 166.18 187.33 171.62 190.55 176.27L192.32 175.46L196.35 173.54C201.82 170.98 206.97 169.06 209.87 169.86C221.46 173.22 189.75 190.19 188.78 190.51L189.1 190.67Z" fill="#F2CDAC" fill-opacity="1.000000" fill-rule="nonzero"/>
		<path id="Vector" d="M134.06 207.63C134.06 207.63 133.9 207.63 133.74 207.31C133.74 207.15 123.76 185.71 136.96 172.74C146.94 162.98 161.91 159.46 171.56 160.26C175.43 160.58 178.48 161.54 180.25 163.14C182.83 165.38 186.37 169.54 190.88 175.63L196.35 172.9C203.27 169.7 207.78 168.42 210.35 169.22C212.12 169.7 213.09 170.66 213.25 171.78C213.89 177.87 190.39 190.35 189.43 190.83C189.27 190.83 188.95 190.83 188.78 190.83C188.62 190.83 188.62 190.35 188.78 190.19C189.43 189.39 192.33 185.39 193.13 181.71C193.29 180.75 193.13 179.95 192.49 179.15C191.84 178.51 191.04 178.19 189.91 178.19C188.62 178.19 187.01 178.83 185.4 179.47C185.24 179.47 185.08 179.63 184.92 179.63L183.8 180.11C182.19 180.91 180.9 181.71 180.58 181.87C159.33 193.23 135.03 206.99 134.71 207.15L134.54 207.15L134.06 207.63ZM168.99 161.22C159.49 161.22 146.62 164.9 137.76 173.54C126.01 185.07 133.1 203.31 134.54 206.51C138.09 204.59 160.3 191.95 179.93 181.55C180.42 181.23 181.7 180.43 183.31 179.63L184.44 179.15C184.6 179.15 184.76 178.99 185.08 178.99C186.37 178.51 188.14 177.71 189.91 177.55C191.2 177.55 192.33 177.87 193.29 178.83C194.1 179.79 194.42 180.91 194.26 182.19C193.77 184.75 192.16 187.63 191.04 189.39C198.28 185.39 212.93 176.43 212.61 172.26C212.61 171.46 211.8 170.82 210.35 170.5C208.1 169.86 203.75 170.98 197.15 174.18L191.36 177.07C191.2 177.07 190.88 177.07 190.72 177.07C186.21 170.82 182.67 166.66 180.09 164.42C178.48 162.98 175.59 162.02 171.89 161.86C171.08 161.86 170.11 161.86 169.31 161.86L168.99 161.22Z" fill="#101720" fill-opacity="1.000000" fill-rule="nonzero"/>
		<path id="Vector" d="M180.74 182.03C180.58 182.03 180.41 182.03 180.25 181.71C180.25 181.55 180.25 181.23 180.42 181.07L190.39 175.95C190.55 175.95 190.88 175.95 191.04 176.11C191.04 176.27 191.04 176.59 190.88 176.75L180.9 181.87C180.9 181.87 180.9 181.87 180.74 181.87L180.74 182.03Z" fill="#101720" fill-opacity="1.000000" fill-rule="nonzero"/>
		<path id="Vector" d="M131.17 197.87C134.39 196.43 136.16 201.23 137.6 205.23L134.06 207.15C134.06 207.15 131.65 201.39 131.17 197.87Z" fill="#101720" fill-opacity="1.000000" fill-rule="nonzero"/>
		<path id="Vector" d="M134.06 207.63C134.06 207.63 134.06 207.63 133.9 207.63C133.9 207.63 133.74 207.63 133.58 207.31C133.58 207.15 131.17 201.55 130.68 197.87C130.68 197.71 130.68 197.39 131 197.39C131.81 197.07 132.78 197.07 133.42 197.39C135.67 198.35 136.96 202.03 138.09 205.07C138.09 205.23 138.09 205.55 137.92 205.71L134.38 207.63L134.22 207.63L134.06 207.63ZM131.81 198.19C132.29 201.07 133.9 205.07 134.38 206.51L137.12 204.91C136.16 202.35 134.87 198.99 133.1 198.19C132.61 198.03 132.13 198.03 131.65 198.19L131.81 198.19Z" fill="#101720" fill-opacity="1.000000" fill-rule="nonzero"/>
		<path id="Vector" d="M140.66 204.11C140.5 204.11 140.34 204.11 140.18 203.79C138.73 199.47 136.64 196.75 134.38 195.79C132.45 194.99 131 195.79 131 195.79C130.84 195.79 130.52 195.79 130.36 195.63C130.36 195.47 130.36 195.15 130.52 194.99C130.52 194.99 132.29 194.03 134.71 194.99C137.28 195.95 139.37 198.83 140.98 203.63C140.98 203.95 140.98 204.11 140.66 204.27C140.66 204.27 140.66 204.27 140.5 204.27L140.66 204.11Z" fill="#101720" fill-opacity="1.000000" fill-rule="nonzero"/>
		<path id="Vector" d="M192.49 175.46L184.28 179.63L183.47 179.95L171.56 160.74C175.26 161.06 178.32 162.02 179.93 163.46C183.15 166.18 187.34 171.62 190.55 176.27L192.32 175.46L192.49 175.46Z" fill="#F8F4F0" fill-opacity="1.000000" fill-rule="nonzero"/>
		<path id="Vector" d="M183.47 180.59C183.31 180.59 183.15 180.59 182.99 180.43L171.08 161.22C171.08 161.22 171.08 161.06 171.08 160.9C171.08 160.74 171.08 160.74 171.24 160.58C171.24 160.58 171.4 160.58 171.56 160.58C175.43 160.9 178.48 161.86 180.25 163.46C182.83 165.7 186.37 169.86 190.88 175.95L192.16 175.31C192.33 175.31 192.65 175.31 192.81 175.46C192.81 175.63 192.81 175.95 192.65 176.11L183.63 180.75C183.63 180.75 183.63 180.75 183.47 180.75L183.47 180.59ZM172.53 161.38L183.63 179.47L190.07 176.27C185.73 170.34 182.35 166.18 179.77 164.1C178.32 162.82 175.75 161.86 172.53 161.54L172.53 161.38Z" fill="#101720" fill-opacity="1.000000" fill-rule="nonzero"/>
		<path id="Vector" d="M162.55 191.79C162.39 191.79 162.23 191.79 162.07 191.63L147.26 166.02C147.26 165.86 147.26 165.54 147.42 165.38C147.58 165.22 147.9 165.38 148.06 165.54L162.87 191.15C162.87 191.31 162.87 191.63 162.71 191.79L162.55 191.79Z" fill="#101720" fill-opacity="1.000000" fill-rule="nonzero"/>
		<path id="Vector" d="M380.96 476.5C380.31 475.06 367.12 454.9 367.12 454.9L332.83 476.02L352.31 512.99L381.92 500.35L380.8 476.5L380.96 476.5Z" fill="#FF7E6E" fill-opacity="1.000000" fill-rule="nonzero"/>
		<path id="Vector" d="M352.31 513.31C352.15 513.31 351.99 513.31 351.83 512.99L332.35 476.02C332.35 475.86 332.35 475.54 332.51 475.38L366.8 454.26C366.96 454.26 367.28 454.26 367.44 454.26C367.92 455.06 380.64 474.58 381.28 476.02C381.28 476.02 381.28 476.02 381.28 476.18L382.41 500.03C382.41 500.19 382.41 500.35 382.09 500.51L352.47 513.15C352.47 513.15 352.47 513.15 352.31 513.15L352.31 513.31ZM333.48 476.02L352.63 512.19L381.6 499.87L380.48 476.5C379.67 474.9 370.82 461.14 366.96 455.38L333.48 476.02Z" fill="#101720" fill-opacity="1.000000" fill-rule="nonzero"/>
		<path id="Vector" d="M351.83 528.36C352.95 531.08 354.24 533.48 356.49 535.24C359.55 537.8 364.38 539.08 372.91 538.28C387.4 537 410.73 517.79 426.02 500.83C440.03 485.31 449.04 476.02 442.92 467.06C442.44 466.26 441.64 465.46 440.99 464.66C435.84 459.7 426.02 459.54 414.76 462.1C404.62 464.34 393.35 468.66 383.37 473.3C377.26 474.74 378.54 479.86 379.03 484.67C379.19 487.07 379.35 489.47 378.22 491.23C375 496.99 366.96 504.03 357.94 500.99C348.93 497.95 343.62 505.31 343.62 505.31C343.62 505.31 348.93 521.47 351.83 528.04L351.83 528.36Z" fill="#F8F4F0" fill-opacity="1.000000" fill-rule="nonzero"/>
		<path id="Vector" d="M368.24 539.08C362.93 539.08 358.91 537.96 356.17 535.72C353.76 533.8 352.47 531.08 351.34 528.68C348.61 522.12 343.3 505.95 343.13 505.79C343.13 505.79 343.13 505.47 343.13 505.31C343.13 505.31 348.77 497.79 357.94 500.83C366.79 503.71 374.84 496.51 377.74 491.23C378.7 489.47 378.54 487.07 378.38 484.83C378.38 484.35 378.38 483.87 378.38 483.39C377.9 478.9 377.42 474.26 383.21 472.82C394.32 467.54 405.42 463.54 414.6 461.62C427.47 458.74 436.32 459.7 441.15 464.34C441.96 465.14 442.76 465.94 443.24 466.74C449.52 475.54 441.31 484.51 427.79 499.55L426.34 501.15C410.73 518.27 387.4 537.32 372.91 538.76C371.14 538.92 369.69 538.92 368.08 538.92L368.24 539.08ZM352.31 528.2C353.27 530.6 354.56 533.16 356.81 534.92C360.03 537.64 365.18 538.44 372.91 537.8C387.23 536.52 410.25 517.63 425.7 500.51L427.15 498.91C440.35 484.35 448.4 475.54 442.6 467.38C442.12 466.58 441.47 465.94 440.67 465.14C436.16 460.66 427.47 459.86 414.92 462.74C405.9 464.66 394.8 468.66 383.85 473.94C378.7 475.22 379.03 479.06 379.67 483.55C379.67 484.03 379.67 484.51 379.67 484.99C379.83 487.23 379.99 489.79 378.86 491.87C373.07 502.43 363.25 503.55 357.94 501.95C350.05 499.39 345.23 504.83 344.42 505.95C345.07 508.03 349.89 522.28 352.47 528.52L352.31 528.2Z" fill="#101720" fill-opacity="1.000000" fill-rule="nonzero"/>
		<path id="Vector" d="M356.49 535.4C364.06 556.68 398.82 531.08 426.02 500.99C440.03 485.47 449.04 476.18 442.92 467.22C435.04 485.31 398.18 514.75 381.28 525.15C369.69 532.2 361.32 534.6 356.49 535.4Z" fill="#F2CDAC" fill-opacity="1.000000" fill-rule="nonzero"/>
		<path id="Vector" d="M367.12 543.56C366.15 543.56 365.35 543.56 364.54 543.24C360.52 542.44 357.78 539.88 356.17 535.4L356.17 535.08C356.17 535.08 356.33 534.92 356.49 534.92C361.32 534.12 369.69 531.88 381.12 524.84C398.5 514.11 434.88 484.99 442.6 467.22C442.6 467.06 442.76 466.9 442.92 466.9C443.08 466.9 443.24 466.9 443.41 467.06C449.68 475.86 441.47 484.83 427.95 499.87L426.51 501.47C408.32 521.47 382.57 543.88 367.12 543.88L367.12 543.56ZM357.14 535.72C358.59 539.56 361.16 541.8 364.54 542.44C373.55 544.2 394.96 534.28 425.54 500.67L426.99 499.07C439.86 484.99 447.75 476.18 442.92 468.18C434.39 486.27 398.66 514.91 381.44 525.48C370.33 532.36 362.13 534.76 357.14 535.72Z" fill="#101720" fill-opacity="1.000000" fill-rule="nonzero"/>
		<path id="Vector" d="M379.03 484.99C408.96 474.58 415.08 468.18 414.76 462.42C404.62 464.66 393.35 468.98 383.37 473.62C377.25 475.06 378.54 480.18 379.03 484.99Z" fill="#F2CDAC" fill-opacity="1.000000" fill-rule="nonzero"/>
		<path id="Vector" d="M379.03 485.31C379.03 485.31 378.86 485.31 378.7 485.31C378.7 485.31 378.54 485.15 378.54 484.99C378.54 484.51 378.54 484.03 378.54 483.55C378.06 479.06 377.58 474.42 383.37 472.98C394.48 467.7 405.58 463.7 414.76 461.78C414.76 461.78 414.92 461.78 415.08 461.78C415.24 461.78 415.4 461.94 415.4 462.26C415.72 469.78 405.42 476.34 379.35 485.31C379.35 485.31 379.35 485.31 379.19 485.31L379.03 485.31ZM414.27 462.9C405.26 464.98 394.48 468.82 383.69 473.94C378.54 475.22 378.86 479.06 379.51 483.55C379.51 483.87 379.51 484.03 379.51 484.35C409.44 473.94 414.27 467.7 414.27 462.9Z" fill="#101720" fill-opacity="1.000000" fill-rule="nonzero"/>
		<path id="Vector" d="M352.15 522.12C351.02 522.12 350.05 522.12 349.09 521.8C348.77 521.8 348.61 521.47 348.77 521.15C348.93 520.83 349.09 520.67 349.41 520.83C359.23 522.76 378.06 513.63 386.75 506.43C387.72 505.63 388.68 504.99 389.65 504.19C398.18 497.47 407.67 489.95 400.91 476.18C400.91 476.02 400.91 475.7 401.08 475.54C401.24 475.54 401.56 475.54 401.72 475.7C408.96 490.11 398.5 498.27 390.29 504.83C389.33 505.63 388.36 506.43 387.39 507.07C379.35 513.63 362.77 521.96 352.31 521.96L352.15 522.12Z" fill="#101720" fill-opacity="1.000000" fill-rule="nonzero"/>
		<path id="Vector" d="M235.46 442.25L279.88 426.73L327.36 498.91L383.69 460.18C383.69 460.18 340.72 365.11 322.85 353.75C304.99 342.39 232.56 367.35 232.56 367.35L235.3 442.09L235.46 442.25Z" fill="#82C9D7" fill-opacity="1.000000" fill-rule="nonzero"/>
		<mask id="mask320_4990" mask-type="alpha" maskUnits="userSpaceOnUse" x="232.566528" y="350.791504" width="151.131348" height="148.122192">
			<path id="Vector" d="M235.46 442.25L279.88 426.73L327.36 498.91L383.69 460.18C383.69 460.18 340.72 365.11 322.85 353.75C304.99 342.39 232.56 367.35 232.56 367.35L235.3 442.09L235.46 442.25Z" fill="#000000" fill-opacity="1.000000" fill-rule="nonzero"/>
		</mask>
		<g mask="url(#mask320_4990)">
			<path id="Vector" d="M238.52 369.44C253.17 385.44 257.19 413.13 267.65 414.25C278.11 415.37 302.74 402.24 301.13 411.05C299.52 419.85 300.81 436.49 313.68 454.9C326.56 473.14 349.41 484.03 364.54 473.78C379.51 463.38 369.21 489.31 369.21 489.31L333 508.51L294.37 516.51L225.97 456.82L238.68 369.6L238.52 369.44Z" fill="#008FB1" fill-opacity="1.000000" fill-rule="nonzero"/>
			<path id="Vector" d="M234.98 358.55C248.66 378.24 255.58 426.57 257.99 440.65C260.41 454.74 221.3 457.46 221.3 457.46L234.98 358.55Z" fill="#101720" fill-opacity="1.000000" fill-rule="nonzero"/>
		</g>
		<path id="Vector" d="M327.52 499.39C327.52 499.39 327.36 499.39 327.2 499.23L279.88 427.37L235.78 442.73C235.78 442.73 235.46 442.73 235.3 442.73C235.3 442.73 235.14 442.57 235.14 442.41L232.4 367.67C232.4 367.51 232.4 367.35 232.72 367.19C232.88 367.19 251.07 360.79 271.19 355.99C298.39 349.59 315.93 348.63 323.34 353.43C330.74 358.23 343.46 377.6 360.68 411.05C373.55 435.85 384.34 459.7 384.34 460.02C384.34 460.18 384.34 460.5 384.18 460.66L327.84 499.39C327.84 499.39 327.68 499.39 327.52 499.39ZM279.88 426.25C280.04 426.25 280.2 426.25 280.2 426.41L327.52 498.27L383.21 460.02C380.31 453.62 339.75 365.11 322.69 354.23C305.79 343.51 238.52 366.07 233.21 367.83L235.94 441.61L279.72 426.41C279.72 426.41 279.72 426.41 279.88 426.41L279.88 426.25Z" fill="#101720" fill-opacity="1.000000" fill-rule="nonzero"/>
		<path id="Vector" d="M247.05 396.64C247.05 447.22 234.01 475.22 192.17 516.83C150.32 558.44 86.58 591.41 86.58 591.41C86.58 591.41 91.09 580.21 86.58 557C82.08 533.8 43.45 489.31 29.45 493.95C29.45 493.95 88.51 458.26 107.51 444.65C107.51 444.65 79.18 416.97 90.44 396.48L247.05 396.48L247.05 396.64Z" fill="#82C9D7" fill-opacity="1.000000" fill-rule="nonzero"/>
		<mask id="mask320_4999" mask-type="alpha" maskUnits="userSpaceOnUse" x="29.448486" y="396.486938" width="217.603394" height="194.930664">
			<path id="Vector" d="M247.05 396.64C247.05 447.22 234.01 475.22 192.16 516.83C150.32 558.44 86.58 591.41 86.58 591.41C86.58 591.41 91.09 580.21 86.58 557C82.07 533.8 43.45 489.31 29.44 493.95C29.44 493.95 88.51 458.26 107.5 444.65C107.5 444.65 79.18 416.97 90.44 396.48L247.05 396.48L247.05 396.64Z" fill="#000000" fill-opacity="1.000000" fill-rule="nonzero"/>
		</mask>
		<g mask="url(#mask320_4999)">
			<path id="Vector" d="M141.63 387.52C125.69 402.56 142.11 416.33 138.25 431.85C134.38 447.38 78.05 481.94 74.67 496.99C71.29 511.87 116.2 543.4 116.2 574.45C116.2 605.5 92.86 611.1 92.86 611.1L28.96 557.32L0.31 479.86L83.2 381.28L141.63 387.52Z" fill="#008FB1" fill-opacity="1.000000" fill-rule="nonzero"/>
		</g>
		<path id="Vector" d="M86.58 591.89C86.58 591.89 86.42 591.89 86.26 591.89C86.26 591.89 86.1 591.57 86.26 591.41C86.26 591.41 90.61 580.05 86.26 557.32C82.56 538.28 56.97 506.91 40.55 497.31C35.88 494.59 32.34 493.79 29.61 494.59C29.44 494.59 29.12 494.59 28.96 494.27C28.96 494.11 28.96 493.79 29.12 493.63C29.77 493.31 87.39 458.42 106.7 444.81C103.32 441.29 79.34 415.69 89.96 396.48C89.96 396.32 90.28 396.16 90.44 396.16L247.05 396.16C247.37 396.16 247.53 396.32 247.53 396.64C247.53 447.06 234.82 475.22 192.49 517.31C150.16 559.4 87.39 591.57 86.74 591.89C86.74 591.89 86.74 591.89 86.58 591.89ZM31.7 493.15C34.27 493.15 37.33 494.27 40.87 496.35C57.45 505.95 83.36 537.64 87.06 557C90.77 576.21 88.35 587.09 87.39 590.45C95.92 585.97 153.54 554.76 191.84 516.51C233.85 474.74 246.57 446.9 246.57 397.12L90.61 397.12C79.98 417.13 107.51 444.17 107.67 444.5C107.67 444.5 107.83 444.65 107.67 444.81C107.67 444.81 107.67 445.14 107.51 445.14C90.61 457.14 42 486.75 31.38 493.15L31.7 493.15Z" fill="#101720" fill-opacity="1.000000" fill-rule="nonzero"/>
		<path id="Vector" d="M86.58 591.41C85.62 590.93 54.71 576.85 40.71 547.4C26.39 517.47 29.45 493.95 29.45 493.95C43.45 489.31 82.24 533.8 86.58 557C91.09 580.21 86.58 591.41 86.58 591.41Z" fill="#101720" fill-opacity="1.000000" fill-rule="nonzero"/>
		<path id="Vector" d="M86.58 591.89C86.58 591.89 86.42 591.89 86.26 591.89C84.33 590.93 54.23 577.01 40.07 547.72C25.9 517.95 28.8 494.27 28.8 494.11C28.8 493.95 28.8 493.79 29.12 493.79C32.02 492.83 35.88 493.79 40.87 496.51C57.45 506.11 83.36 537.8 87.07 557.16C91.57 580.21 87.07 591.41 87.07 591.73C87.07 591.73 86.9 592.05 86.74 592.05L86.58 591.89ZM29.93 494.43C29.61 497.31 28 519.55 41.19 547.24C54.55 575.09 82.4 588.85 86.42 590.77C87.23 588.37 90.12 577.17 86.26 557.16C82.56 538.12 56.97 506.75 40.55 497.15C36.04 494.59 32.5 493.63 29.93 494.27L29.93 494.43Z" fill="#101720" fill-opacity="1.000000" fill-rule="nonzero"/>
		<path id="Vector" d="M90.44 397.12C90.44 397.12 90.44 397.12 90.28 397.12C89.96 397.12 89.96 396.64 90.12 396.48C90.12 396.48 90.12 396.16 90.93 395.04C91.57 393.92 92.05 392.96 92.54 392.16L93.18 390.88C93.18 390.72 93.66 390.56 93.82 390.72C94.14 390.72 94.14 391.2 93.98 391.36L93.34 392.64C92.86 393.44 92.37 394.4 91.73 395.52C91.09 396.8 90.93 396.96 90.93 396.96C90.93 397.12 90.6 397.28 90.44 397.28L90.44 397.12Z" fill="#101720" fill-opacity="1.000000" fill-rule="nonzero"/>
		<path id="Vector" d="M90.44 397.12C90.44 397.12 90.44 397.12 90.28 397.12C89.96 397.12 89.96 396.64 90.12 396.48C90.12 396.48 90.12 396.16 90.93 395.04C91.57 393.92 92.05 392.96 92.54 392.16C92.86 391.68 93.02 391.2 93.18 390.88L93.66 389.92C93.66 389.92 93.66 389.92 93.66 389.76C93.66 389.76 93.66 389.6 93.82 389.44C93.82 389.28 93.82 389.12 93.98 389.12C93.98 389.12 93.98 388.96 94.14 388.8C94.14 388.8 94.14 388.8 94.14 388.64C94.14 388.48 94.31 388.32 94.47 388.16L94.47 388C94.63 387.84 94.95 387.84 95.11 388C95.27 388.16 95.27 388.48 95.11 388.64C95.11 388.64 95.11 388.8 95.11 388.96C95.11 388.96 95.11 388.96 95.11 389.12C95.11 389.12 95.11 389.28 95.11 389.44C95.11 389.44 95.11 389.76 94.79 389.92C94.79 390.08 94.63 390.24 94.47 390.56C94.47 390.56 94.47 390.56 94.47 390.72L93.82 391.84C93.66 392.16 93.34 392.64 93.18 393.12C92.7 393.92 92.21 394.88 91.57 396C90.93 397.28 90.76 397.44 90.76 397.44C90.76 397.6 90.44 397.76 90.28 397.76L90.44 397.12Z" fill="#101720" fill-opacity="1.000000" fill-rule="nonzero"/>
		<path id="Vector" d="M23.01 362.55C84.81 288.77 107.99 257.41 156.75 250.68C205.52 243.96 267.49 280.29 267.49 280.29L310.78 218.84C310.78 218.84 336.54 225.56 351.83 236.76C351.83 236.76 319.31 310.54 292.27 332.95C265.23 355.35 237.23 337.91 237.23 337.91L247.21 396.64L90.6 396.64L95.43 358.87L61.79 400L23.17 362.55L23.01 362.55Z" fill="#F8F4F0" fill-opacity="1.000000" fill-rule="nonzero"/>
		<mask id="mask320_5010" mask-type="alpha" maskUnits="userSpaceOnUse" x="23.010742" y="218.840820" width="328.819214" height="181.167114">
			<path id="Vector" d="M23.01 362.55C84.81 288.77 107.99 257.41 156.75 250.68C205.52 243.96 267.49 280.29 267.49 280.29L310.78 218.84C310.78 218.84 336.54 225.56 351.83 236.76C351.83 236.76 319.31 310.54 292.27 332.95C265.23 355.35 237.23 337.91 237.23 337.91L247.21 396.64L90.6 396.64L95.43 358.87L61.79 400L23.17 362.55L23.01 362.55Z" fill="#000000" fill-opacity="1.000000" fill-rule="nonzero"/>
		</mask>
		<g mask="url(#mask320_5010)">
			<path id="Vector" d="M26.71 381.28C26.71 381.28 98.49 283.49 119.57 268.77C140.66 254.21 197.8 259.65 225.48 271.17C253.16 282.69 259.12 285.09 258.96 287.81C258.79 290.53 256.38 296.46 256.38 296.46C256.38 296.46 262.5 298.06 268.77 290.69C275.05 283.49 316.57 216.76 316.57 216.76L257.02 202.99L63.72 246.04L-14.5 341.91L26.87 380.96L26.71 381.28Z" fill="#8FDCE8" fill-opacity="1.000000" fill-rule="nonzero"/>
		</g>
		<path id="Vector" d="M61.63 400.48L61.31 400.48L22.68 363.03C22.52 362.87 22.52 362.55 22.68 362.39C26.87 357.43 30.73 352.79 34.59 348.15C87.06 285.41 111.04 256.61 156.75 250.36C182.18 246.84 210.99 255.17 230.63 262.69C250.1 270.21 264.75 278.37 267.32 279.81L310.3 218.68C310.3 218.52 310.62 218.52 310.78 218.52C311.1 218.52 336.86 225.4 351.98 236.44C352.15 236.44 352.15 236.76 352.15 237.08C352.15 237.24 343.94 255.81 332.51 276.77C322.05 296.14 306.44 321.74 292.43 333.43C268.13 353.43 242.7 341.75 237.71 339.03L247.53 396.8L247.53 397.12C247.53 397.12 247.37 397.28 247.21 397.28L90.6 397.28C90.6 397.28 90.28 397.28 90.28 397.12C90.28 397.12 90.28 396.96 90.28 396.8L94.79 360.63L62.28 400.48C62.28 400.48 62.11 400.64 61.95 400.64L61.63 400.48ZM23.65 362.55L61.63 399.36L94.95 358.55C94.95 358.39 95.27 358.39 95.43 358.55C95.59 358.55 95.75 358.87 95.75 359.03L91.09 396.32L246.72 396.32L236.91 338.23C236.91 338.07 236.91 337.91 237.07 337.75C237.23 337.59 237.39 337.75 237.55 337.75C237.87 337.91 265.72 354.55 292.11 332.79C317.7 311.5 348.93 242.68 351.34 237.08C337.18 226.84 314.16 220.44 311.1 219.64L267.97 280.77C267.97 280.93 267.49 281.09 267.32 280.77C267.16 280.77 251.55 271.65 230.31 263.49C210.67 255.97 182.02 247.8 156.91 251.16C111.53 257.41 89.15 284.13 35.24 348.63C31.53 353.11 27.67 357.75 23.65 362.55Z" fill="#101720" fill-opacity="1.000000" fill-rule="nonzero"/>
		<path id="Vector" d="M310.78 218.84C316.74 209.55 313.2 198.19 324.79 198.67C324.79 198.67 328.97 191.95 332.67 189.87C336.37 187.79 339.91 189.39 340.56 192.91C340.56 192.91 344.26 191.15 347.16 193.23C350.05 195.31 349.89 197.71 349.89 197.71C349.89 197.71 354.88 197.23 356.98 200.43C359.07 203.63 357.78 205.55 357.78 205.55C357.78 205.55 364.22 205.23 364.06 211.79C363.73 218.36 351.82 236.76 351.82 236.76L310.78 218.84Z" fill="#FF7E6D" fill-opacity="1.000000" fill-rule="nonzero"/>
		<mask id="mask320_5017" mask-type="alpha" maskUnits="userSpaceOnUse" x="310.787109" y="188.946777" width="53.277222" height="47.978516">
			<path id="Vector" d="M310.78 218.84C316.74 209.55 313.2 198.19 324.79 198.67C324.79 198.67 328.97 191.95 332.67 189.87C336.37 187.79 339.91 189.39 340.56 192.91C340.56 192.91 344.26 191.15 347.16 193.23C350.05 195.31 349.89 197.71 349.89 197.71C349.89 197.71 354.88 197.23 356.98 200.43C359.07 203.63 357.78 205.55 357.78 205.55C357.78 205.55 364.22 205.23 364.06 211.95C363.73 218.52 351.82 236.92 351.82 236.92L310.78 219L310.78 218.84Z" fill="#000000" fill-opacity="1.000000" fill-rule="nonzero"/>
		</mask>
		<g mask="url(#mask320_5017)">
			<path id="Vector" d="M325.91 197.07C325.91 197.07 317.54 208.75 319.31 212.91C320.92 217.08 356.01 235.8 356.01 235.8L352.79 240.44L306.76 218.84L309.33 203.15L317.7 194.99L325.91 197.07Z" fill="#008FB1" fill-opacity="1.000000" fill-rule="nonzero"/>
			<path id="Vector" d="M333.48 188.43C337.34 188.43 337.98 190.99 337.66 192.59C337.34 194.19 336.05 197.07 336.69 197.55C337.34 198.03 338.63 195.79 339.27 194.67C339.91 193.55 341.36 190.83 341.36 190.83L340.4 187.15L335.25 186.51L333.48 188.27L333.48 188.43Z" fill="#008FB1" fill-opacity="1.000000" fill-rule="nonzero"/>
			<path id="Vector" d="M345.39 192.59C347.16 193.23 348.12 195.95 347.64 197.55C347.16 199.15 346.19 201.55 347 202.19C347.8 202.83 349.89 198.35 350.7 196.43C351.5 194.51 349.89 191.63 349.89 191.63L347 190.35L345.23 192.75L345.39 192.59Z" fill="#008FB1" fill-opacity="1.000000" fill-rule="nonzero"/>
			<path id="Vector" d="M354.24 198.35C356.33 200.11 356.49 203.79 355.85 204.91C355.2 206.03 353.75 210.03 354.72 210.51C355.69 210.99 357.3 206.35 357.3 206.35L359.07 202.67L357.78 197.07L354.24 198.19L354.24 198.35Z" fill="#008FB1" fill-opacity="1.000000" fill-rule="nonzero"/>
			<path id="Vector" d="M359.71 205.87C361.64 207.95 361.64 209.23 361.32 213.39C361 217.56 358.58 222.84 361 223.64C363.41 224.44 367.92 212.59 367.92 212.59L364.86 204.27L359.71 205.87Z" fill="#008FB1" fill-opacity="1.000000" fill-rule="nonzero"/>
		</g>
		<path id="Vector" d="M318.03 209.55C318.03 209.55 317.86 209.55 317.7 209.55C317.54 209.55 317.38 209.07 317.7 208.91L324.46 198.51C324.46 198.35 324.95 198.19 325.11 198.51C325.27 198.51 325.43 198.99 325.11 199.15L318.35 209.55C318.35 209.55 318.19 209.71 318.03 209.71L318.03 209.55Z" fill="#101720" fill-opacity="1.000000" fill-rule="nonzero"/>
		<path id="Vector" d="M338.14 197.55L337.98 197.55C337.82 197.55 337.66 197.07 337.82 196.91L340.24 192.75C340.24 192.59 340.72 192.43 340.88 192.59C341.04 192.59 341.2 193.07 341.04 193.23L338.63 197.39C338.63 197.55 338.31 197.55 338.14 197.55Z" fill="#101720" fill-opacity="1.000000" fill-rule="nonzero"/>
		<path id="Vector" d="M347.96 201.87C347.96 201.87 347.96 201.87 347.8 201.87C347.64 201.87 347.48 201.39 347.64 201.23L349.57 197.39C349.57 197.23 350.06 197.07 350.22 197.23C350.38 197.23 350.54 197.71 350.38 197.87L348.45 201.71C348.45 201.87 348.12 202.03 347.96 202.03L347.96 201.87Z" fill="#101720" fill-opacity="1.000000" fill-rule="nonzero"/>
		<path id="Vector" d="M355.85 210.03C355.85 210.03 355.85 210.03 355.69 210.03C355.53 210.03 355.37 209.71 355.53 209.39L357.46 205.23C357.46 205.07 357.78 204.91 358.1 205.07C358.42 205.23 358.42 205.39 358.26 205.71L356.33 209.87C356.33 210.03 356.01 210.19 355.85 210.19L355.85 210.03Z" fill="#101720" fill-opacity="1.000000" fill-rule="nonzero"/>
		<path id="Vector" d="M312.71 215.16C328.65 223.32 351.82 236.76 351.82 236.76L310.78 218.84L312.71 215L312.71 215.16Z" fill="#101720" fill-opacity="1.000000" fill-rule="nonzero"/>
		<path id="Vector" d="M351.83 237.24C351.83 237.24 351.83 237.24 351.67 237.24L310.62 219.32C310.62 219.32 310.46 219.16 310.3 219L310.3 218.68L312.23 214.84C312.23 214.84 312.39 214.68 312.55 214.68L312.88 214.68C328.65 222.84 351.67 236.12 351.99 236.28C352.15 236.28 352.31 236.6 352.15 236.92C352.15 237.08 351.83 237.24 351.67 237.24L351.83 237.24ZM311.43 218.68L343.94 232.92C335.89 228.28 323.02 221.08 312.88 215.8L311.43 218.68Z" fill="#101720" fill-opacity="1.000000" fill-rule="nonzero"/>
		<path id="Vector" d="M351.83 237.24C351.83 237.24 351.83 237.24 351.67 237.24L310.62 219.32C310.62 219.32 310.46 219.16 310.3 219L310.3 218.68C312.39 215.48 313.36 211.95 314.16 208.75C315.61 202.99 316.9 198.19 324.46 198.19C325.27 196.91 328.97 191.31 332.35 189.39C334.28 188.27 336.38 188.11 337.98 188.91C339.27 189.55 340.24 190.67 340.72 192.27C341.85 191.79 344.91 190.99 347.32 192.75C349.57 194.35 350.22 196.27 350.22 197.23C351.67 197.23 355.37 197.39 357.3 200.27C358.75 202.51 358.75 204.27 358.42 205.23C359.39 205.23 361.32 205.71 362.77 206.99C363.9 208.11 364.54 209.87 364.38 211.95C364.06 218.52 352.63 236.44 352.15 237.08C352.15 237.08 351.99 237.24 351.83 237.24ZM311.59 218.68L351.67 236.12C353.27 233.56 363.25 217.72 363.58 211.79C363.58 210.03 363.25 208.59 362.13 207.63C360.52 206.03 357.78 206.03 357.78 206.03C357.62 206.03 357.46 206.03 357.3 205.87C357.3 205.71 357.3 205.55 357.3 205.39C357.3 205.39 358.26 203.63 356.49 200.75C354.56 197.87 349.89 198.19 349.89 198.19L349.57 198.19C349.57 198.19 349.41 198.03 349.57 197.87C349.57 197.87 349.57 195.63 347 193.71C344.42 191.79 340.88 193.39 340.88 193.55C340.88 193.55 340.56 193.55 340.4 193.55C340.4 193.55 340.24 193.39 340.08 193.23C339.75 191.79 338.95 190.67 337.66 190.03C336.21 189.39 334.6 189.55 332.83 190.51C329.29 192.43 325.11 199.15 325.11 199.15C325.11 199.15 324.95 199.31 324.63 199.31C317.54 198.99 316.58 203.31 314.97 209.07C314.16 212.11 313.36 215.64 311.27 218.84L311.59 218.68Z" fill="#101720" fill-opacity="1.000000" fill-rule="nonzero"/>
		<path id="Vector" d="M238.52 345.91L216.95 323.34C222.42 328.78 229.18 333.75 237.23 337.91L238.52 345.91Z" fill="#101720" fill-opacity="1.000000" fill-rule="nonzero"/>
		<path id="Vector" d="M238.52 346.39L238.19 346.39L216.63 323.82C216.47 323.66 216.47 323.34 216.63 323.18C216.79 323.02 217.11 323.02 217.27 323.18C222.74 328.62 229.66 333.75 237.39 337.75C237.39 337.75 237.55 337.91 237.71 338.07L239 346.07C239 346.23 239 346.55 238.68 346.55C238.68 346.55 238.68 346.55 238.52 346.55L238.52 346.39ZM224.35 330.55L237.71 344.47L236.75 338.23C232.4 335.99 228.22 333.27 224.51 330.55L224.35 330.55Z" fill="#101720" fill-opacity="1.000000" fill-rule="nonzero"/>
		<path id="Vector" d="M216.79 323.82C216.79 323.82 216.63 323.82 216.47 323.82C215.82 323.18 215.18 322.54 214.54 321.9L214.21 321.58C206.97 313.58 202.95 304.78 202.79 296.94C202.79 296.62 202.95 296.46 203.27 296.46C203.59 296.46 203.75 296.62 203.75 296.94C203.75 304.78 207.94 313.42 215.18 321.42L217.11 323.34C217.27 323.5 217.27 323.82 217.11 323.98C216.95 324.14 216.95 323.98 216.79 323.98L216.79 323.82Z" fill="#101720" fill-opacity="1.000000" fill-rule="nonzero"/>
		<path id="Vector" d="M101.07 322.54L86.58 369.44L95.27 358.87C101.23 319.18 107.51 286.21 107.51 286.21L101.07 322.54Z" fill="#101720" fill-opacity="1.000000" fill-rule="nonzero"/>
		<path id="Vector" d="M86.58 369.76C86.58 369.76 86.58 369.76 86.42 369.76C86.26 369.76 86.1 369.44 86.1 369.12L100.58 322.22C104.13 300.94 107.02 286.21 107.02 286.05C107.02 285.73 107.34 285.57 107.67 285.73C107.99 285.73 108.15 286.05 107.99 286.37C107.99 286.69 101.55 319.82 95.76 358.87L95.76 359.03L87.06 369.6C87.06 369.6 86.9 369.76 86.74 369.76L86.58 369.76ZM99.3 329.59L87.71 367.19L94.63 358.71C96.08 348.47 97.69 338.55 99.14 329.75L99.3 329.59Z" fill="#101720" fill-opacity="1.000000" fill-rule="nonzero"/>
		<path id="Vector" d="M61.63 400C61.63 400 47.95 420.97 43.12 422.41C38.3 424.01 37.65 412.01 37.65 412.01C37.65 412.01 18.98 435.69 15.12 437.93C11.26 440.17 6.91 435.53 7.88 432.01C7.88 432.01 1.28 438.73 -2.26 435.69C-5.8 432.65 -3.07 425.61 -3.07 425.61C-3.07 425.61 -9.02 430.73 -12.24 427.37C-15.46 424.01 -12.72 418.57 -12.72 418.57C-12.72 418.57 -17.88 419.53 -18.84 414.09C-19.81 408.65 -1.94 392.64 23.17 362.71L61.79 400.16L61.63 400Z" fill="#FF7E6D" fill-opacity="1.000000" fill-rule="nonzero"/>
		<mask id="mask320_5040" mask-type="alpha" maskUnits="userSpaceOnUse" x="-18.871094" y="362.718262" width="80.672852" height="75.807251">
			<path id="Vector" d="M61.64 400C61.64 400 47.96 420.97 43.13 422.41C38.3 424.01 37.65 412.01 37.65 412.01C37.65 412.01 18.98 435.69 15.12 437.93C11.26 440.17 6.91 435.53 7.88 432.01C7.88 432.01 1.28 438.73 -2.26 435.69C-5.8 432.65 -3.07 425.61 -3.07 425.61C-3.07 425.61 -9.02 430.73 -12.24 427.37C-15.46 424.01 -12.72 418.57 -12.72 418.57C-12.72 418.57 -17.87 419.53 -18.84 414.09C-19.8 408.65 -1.94 392.64 23.17 362.71L61.8 400.16L61.64 400Z" fill="#000000" fill-opacity="1.000000" fill-rule="nonzero"/>
		</mask>
		<g mask="url(#mask320_5040)">
			<path id="Vector" d="M13.67 371.2C23.49 369.12 36.53 379.84 42.48 389.12C48.44 398.4 41.84 406.89 36.85 404.32C31.86 401.76 26.55 397.44 26.87 400.16C27.19 402.72 32.02 411.85 31.06 414.73C30.09 417.61 13.03 437.93 9.49 436.97C6.11 436.01 11.42 444.33 11.42 444.33L45.86 438.57L59.22 419.05L64.85 393.76L50.21 373.44L21.56 357.59L13.99 371.04L13.67 371.2Z" fill="#008FB1" fill-opacity="1.000000" fill-rule="nonzero"/>
			<path id="Vector" d="M20.43 415.53C20.43 415.53 22.52 412.81 20.75 412.17C18.98 411.53 9.97 424.49 6.27 428.81C2.57 433.13 -3.55 435.85 -6.61 434.57C-9.5 433.45 0.64 439.53 0.64 439.53L7.07 433.13L20.27 415.53L20.43 415.53Z" fill="#008FB1" fill-opacity="1.000000" fill-rule="nonzero"/>
			<path id="Vector" d="M10.61 407.69C11.1 406.08 11.26 404.64 10.13 404.48C9 404.32 2.57 414.25 -0.97 418.41C-4.52 422.57 -9.67 427.37 -12.24 425.45C-14.66 423.53 -14.17 430.41 -14.17 430.41L-9.67 432.01L-3.71 426.41L10.61 407.85L10.61 407.69Z" fill="#008FB1" fill-opacity="1.000000" fill-rule="nonzero"/>
			<path id="Vector" d="M2.57 399.68C3.37 398.24 2.25 397.76 1.44 398.08C0.64 398.4 -8.38 409.45 -12.56 412.81C-16.75 416.17 -18.84 416.97 -20.61 415.53C-22.38 414.09 -19.16 420.49 -19.16 420.49L-15.46 420.49L-13.53 418.73L2.57 399.68Z" fill="#008FB1" fill-opacity="1.000000" fill-rule="nonzero"/>
		</g>
		<path id="Vector" d="M12.87 438.89C11.74 438.89 10.61 438.57 9.65 437.77C8.2 436.65 7.23 434.89 7.07 433.13C4.98 434.89 0.31 438.41 -2.75 435.85C-5.48 433.45 -4.84 428.97 -4.19 426.57C-6.13 428.01 -10.31 430.09 -12.89 427.37C-15.62 424.49 -14.5 420.49 -13.85 418.89C-14.66 418.89 -16.1 418.89 -17.39 417.93C-18.68 417.13 -19.32 415.69 -19.65 413.93C-20.29 410.25 -13.69 403.04 -1.78 389.92C4.98 382.56 13.19 373.28 22.52 362.23C22.52 362.23 22.68 362.07 22.85 362.07L23.17 362.07L61.79 399.52C61.79 399.68 61.96 400 61.79 400.16C61.31 400.96 47.95 421.29 42.96 422.89C42 423.21 41.19 423.05 40.39 422.57C37.97 420.97 37.33 415.69 37.01 413.29C33.47 417.77 18.66 436.33 15.12 438.25C14.31 438.73 13.51 438.89 12.71 438.89L12.87 438.89ZM7.88 431.37C7.88 431.37 7.88 431.37 8.2 431.37C8.36 431.37 8.52 431.69 8.36 431.85C7.88 433.45 8.68 435.53 10.29 436.81C11.74 437.93 13.35 438.09 14.8 437.29C18.5 435.05 37.01 411.85 37.17 411.53C37.17 411.37 37.49 411.37 37.65 411.37C37.81 411.37 37.97 411.53 37.97 411.85C37.97 414.09 38.78 420.01 41.03 421.61C41.52 421.93 42.16 422.09 42.8 421.77C46.5 420.65 56.16 407.05 60.83 399.84L22.85 363.03C13.67 373.92 5.46 383.04 -1.14 390.4C-12.08 402.4 -19.32 410.41 -18.68 413.61C-18.36 415.05 -17.71 416.17 -16.75 416.97C-15.14 418.09 -13.05 417.77 -13.05 417.77C-12.89 417.77 -12.72 417.77 -12.56 417.93C-12.4 418.09 -12.56 418.25 -12.56 418.41C-12.56 418.41 -14.98 423.53 -12.08 426.57C-9.18 429.61 -3.55 424.81 -3.55 424.81C-3.55 424.81 -3.23 424.65 -2.91 424.81C-2.75 424.81 -2.58 425.13 -2.75 425.45C-2.75 425.45 -5.16 432.33 -2.1 435.05C0.96 437.77 7.23 431.53 7.23 431.53C7.23 431.53 7.39 431.53 7.55 431.53L7.88 431.37Z" fill="#101720" fill-opacity="1.000000" fill-rule="nonzero"/>
		<path id="Vector" d="M-12.89 418.89C-12.89 418.89 -13.05 418.89 -13.21 418.89C-13.37 418.73 -13.53 418.41 -13.21 418.25L2.73 399.04C2.89 398.88 3.21 398.88 3.37 399.04C3.53 399.2 3.69 399.52 3.37 399.68L-12.56 418.89L-12.89 419.05L-12.89 418.89Z" fill="#101720" fill-opacity="1.000000" fill-rule="nonzero"/>
		<path id="Vector" d="M-3.07 425.77C-3.07 425.77 -3.23 425.77 -3.39 425.77C-3.55 425.61 -3.71 425.29 -3.39 425.13L10.94 406.73C10.94 406.57 11.42 406.57 11.58 406.73C11.74 406.89 11.9 407.21 11.58 407.37L-2.75 425.77L-3.07 425.93L-3.07 425.77Z" fill="#101720" fill-opacity="1.000000" fill-rule="nonzero"/>
		<path id="Vector" d="M7.88 432.33C7.88 432.33 7.71 432.33 7.55 432.33C7.39 432.17 7.23 431.85 7.55 431.69L21.07 414.25C21.07 414.09 21.56 413.93 21.72 414.25C21.88 414.41 22.04 414.73 21.72 414.89L8.2 432.33L7.88 432.49L7.88 432.33Z" fill="#101720" fill-opacity="1.000000" fill-rule="nonzero"/>
		<path id="Vector" d="M37.65 412.49C37.65 412.49 37.49 412.49 37.33 412.49L20.91 398.08C20.75 397.92 20.75 397.6 20.91 397.44C21.07 397.28 21.4 397.28 21.56 397.44L37.97 411.85C38.13 412.01 38.13 412.33 37.97 412.49C37.97 412.49 37.81 412.65 37.65 412.65L37.65 412.49Z" fill="#101720" fill-opacity="1.000000" fill-rule="nonzero"/>
		<path id="Vector" d="M19.63 366.39L61.63 400L23.01 362.55L19.63 366.39Z" fill="#101720" fill-opacity="1.000000" fill-rule="nonzero"/>
		<path id="Vector" d="M61.63 400.48C61.63 400.48 61.47 400.48 61.31 400.48L19.46 366.87C19.46 366.87 19.46 366.71 19.3 366.55C19.14 366.39 19.3 366.23 19.3 366.23L22.52 362.39C22.52 362.39 22.68 362.23 22.84 362.23L23.17 362.23L61.79 399.68C61.95 399.84 61.95 400.16 61.79 400.32C61.79 400.32 61.63 400.48 61.47 400.48L61.63 400.48ZM20.43 366.39L53.91 393.28L23 363.35L20.43 366.39Z" fill="#101720" fill-opacity="1.000000" fill-rule="nonzero"/>
		<path id="Vector" d="M49.24 518.75C51.17 520.51 53.42 522.76 55.68 525.32C64.53 535.08 71.93 547.4 76.76 559.4L58.09 572.21L49.08 578.29L29.12 557.32L28.8 530.76L30.09 529.96L49.24 518.59L49.24 518.75Z" fill="#FF7E6E" fill-opacity="1.000000" fill-rule="nonzero"/>
		<path id="Vector" d="M49.24 578.77L48.92 578.77L28.96 557.8C28.96 557.8 28.96 557.64 28.96 557.48L28.64 530.92C28.64 530.76 28.64 530.6 28.96 530.44L49.4 518.43C49.56 518.43 49.88 518.43 50.04 518.43C51.98 520.35 54.23 522.44 56.48 525C64.85 534.12 72.42 546.28 77.73 559.24C77.73 559.4 77.73 559.72 77.57 559.89L50.04 578.93C50.04 578.93 49.88 578.93 49.72 578.93L49.24 578.77ZM29.6 557L49.24 577.65L76.12 559.08C70.81 546.44 63.4 534.44 55.2 525.48C53.1 523.08 51.01 520.99 49.08 519.23L29.12 531.08L29.44 557.16L29.6 557Z" fill="#101720" fill-opacity="1.000000" fill-rule="nonzero"/>
		<path id="Vector" d="M36.85 539.88C35.24 547.08 30.57 559.08 40.87 564.21C46.02 566.77 50.53 568.37 54.23 570.45C58.09 572.53 61.15 574.93 63.4 578.93C65.66 583.09 67.59 601.18 67.43 620.38C67.27 637.03 65.5 654.47 60.99 664.23C58.25 670.15 55.68 674.31 53.42 677.2C47.47 684.88 43.28 684.24 43.28 684.24L-27.53 553.8C-25.28 550.6 -19.97 545.96 -13.69 541.16C-2.59 532.84 11.9 524.52 18.98 524.2C30.09 523.88 38.29 532.52 36.69 539.72L36.85 539.88Z" fill="#F8F4F0" fill-opacity="1.000000" fill-rule="nonzero"/>
		<path id="Vector" d="M43.45 684.88L43.12 684.88C43.12 684.88 42.8 684.88 42.8 684.72L-28.01 554.28C-28.01 554.12 -28.01 553.96 -28.01 553.8C-25.92 550.76 -20.77 546.12 -14.01 541.16C-2.91 532.84 11.58 524.36 18.98 524.2C24.94 524.03 30.73 526.44 34.27 530.6C36.85 533.64 37.81 537.16 37.17 540.36C37.01 541.32 36.69 542.28 36.53 543.4C34.59 550.76 32.34 559.88 41.03 564.21C43.29 565.33 45.38 566.29 47.47 567.09C50.05 568.21 52.46 569.33 54.55 570.45C59.06 572.85 61.96 575.57 63.89 579.09C66.3 583.57 68.23 602.14 67.91 620.7C67.91 632.06 66.78 653.03 61.31 664.71C58.9 670.15 56.32 674.47 53.75 677.84C48.44 684.56 44.57 685.04 43.61 685.04L43.45 684.88ZM-26.89 553.8L43.61 683.76C44.57 683.76 48.11 683.12 52.94 677.04C55.52 673.83 58.09 669.51 60.51 664.07C65.82 652.55 66.78 631.9 66.95 620.54C67.11 600.53 65.01 583.09 62.92 579.25C60.99 575.89 58.41 573.33 53.91 570.93C51.82 569.81 49.4 568.69 46.99 567.57C44.9 566.61 42.8 565.65 40.55 564.53C31.21 559.88 33.63 549.96 35.56 542.6C35.88 541.64 36.04 540.52 36.2 539.72C36.85 536.84 35.88 533.64 33.47 530.76C30.09 526.76 24.78 524.52 18.98 524.68C11.9 525 -2.91 533.64 -13.53 541.48C-19.97 546.28 -24.8 550.76 -27.05 553.64L-26.89 553.8Z" fill="#101720" fill-opacity="1.000000" fill-rule="nonzero"/>
		<path id="Vector" d="M26.55 581.17C46.34 616.54 64.37 649.99 53.42 677.36C47.47 685.04 43.28 684.4 43.28 684.4L-27.53 553.96C-25.28 550.76 -19.97 546.12 -13.69 541.32C-13.69 541.32 6.59 545.8 26.38 581.17L26.55 581.17Z" fill="#F2CDAC" fill-opacity="1.000000" fill-rule="nonzero"/>
		<path id="Vector" d="M43.45 684.88L43.12 684.88C43.12 684.88 42.8 684.88 42.8 684.72L-28.01 554.28C-28.01 554.12 -28.01 553.96 -28.01 553.8C-25.92 550.76 -20.77 546.12 -14.01 541.16L-13.69 541.16C-13.53 541.16 7.07 546.12 26.71 581.33C45.54 614.94 65.01 649.83 53.59 677.84C53.59 677.84 53.59 677.84 53.59 678C48.28 684.72 44.41 685.2 43.45 685.2L43.45 684.88ZM-26.89 553.8L43.61 683.76C44.57 683.76 48.11 683.12 52.94 677.04C64.05 649.35 44.73 614.78 26.06 581.33C7.72 548.36 -11.28 542.28 -13.53 541.64C-19.81 546.44 -24.63 550.76 -26.89 553.8Z" fill="#101720" fill-opacity="1.000000" fill-rule="nonzero"/>
		<path id="Vector" d="M-27.53 553.8C-19.48 541.64 5.3 564.37 25.26 603.42C45.22 642.47 55.68 670.79 43.29 684.24C30.73 697.68 0.96 639.9 -9.83 616.22C-20.61 592.53 -34.93 567.25 -27.37 553.8L-27.53 553.8Z" fill="#82C9D7" fill-opacity="1.000000" fill-rule="nonzero"/>
		<path id="Vector" d="M38.94 686.8C38.62 686.8 38.13 686.8 37.81 686.8C20.59 684.08 -9.02 619.26 -10.31 616.54C-11.92 613.02 -13.53 609.66 -15.14 606.14C-25.12 585.17 -34.45 565.33 -27.85 553.64C-26.25 551.24 -23.83 549.96 -20.93 550.12C-9.18 550.76 10.13 572.69 25.9 603.42C45.86 642.31 56.48 671.11 43.77 684.72C42.48 686.16 40.87 686.96 39.1 686.96L38.94 686.8ZM-27.05 554.12C-33.33 565.49 -23.67 585.97 -14.33 605.66C-12.73 609.18 -11.12 612.7 -9.51 616.06C1.12 639.27 24.45 683.6 37.97 685.68C39.91 686 41.51 685.36 42.96 683.92C55.36 670.63 44.73 642.31 24.94 603.74C9.65 573.81 -9.67 551.56 -21.09 551.08C-23.67 550.92 -25.6 552.04 -27.05 554.12Z" fill="#101720" fill-opacity="1.000000" fill-rule="nonzero"/>
		<path id="Vector" d="M54.23 570.45C58.09 572.53 61.15 574.93 63.41 578.93C65.66 583.09 67.59 601.18 67.43 620.38C56.65 616.22 53.75 589.81 54.23 570.45Z" fill="#F2CDAC" fill-opacity="1.000000" fill-rule="nonzero"/>
		<path id="Vector" d="M67.43 620.86C67.43 620.86 67.43 620.86 67.27 620.86C56.48 616.7 53.27 591.09 53.75 570.45C53.75 570.29 53.75 570.13 54.07 570.13C54.07 570.13 54.39 570.13 54.55 570.13C59.06 572.53 61.96 575.25 63.89 578.77C66.3 583.25 68.23 601.98 67.91 620.38C67.91 620.54 67.91 620.7 67.75 620.7C67.75 620.7 67.59 620.7 67.43 620.7L67.43 620.86ZM54.71 571.25C54.39 590.93 57.29 614.94 66.95 619.58C66.95 599.9 65.01 582.77 62.92 579.09C61.15 575.89 58.58 573.49 54.71 571.25Z" fill="#101720" fill-opacity="1.000000" fill-rule="nonzero"/>
		<path id="Vector" d="M55.52 594.93C44.25 593.97 39.42 584.53 33.95 571.09C28.64 557.96 10.29 540.04 -1.78 533.48C-2.1 533.48 -2.1 533 -1.94 532.84C-1.78 532.68 -1.46 532.52 -1.3 532.68C10.94 539.4 29.45 557.48 34.92 570.77C40.23 583.89 44.9 593.17 55.68 593.97C56 593.97 56.16 594.29 56.16 594.45C56.16 594.77 56 594.93 55.68 594.93L55.52 594.93Z" fill="#101720" fill-opacity="1.000000" fill-rule="nonzero"/>
		<path id="Vector" d="M107.5 444.81C118.93 437.29 127.62 423.21 127.62 423.21C127.62 423.21 109.11 434.73 100.26 436.49L107.5 444.81Z" fill="#101720" fill-opacity="1.000000" fill-rule="nonzero"/>
		<path id="Vector" d="M107.51 445.3C107.35 445.3 107.18 445.3 107.18 445.14C107.18 444.97 107.18 444.65 107.18 444.49C115.88 438.73 123.28 428.81 126.02 424.81C121.03 427.85 107.67 435.53 100.26 436.97C99.94 436.97 99.78 436.97 99.78 436.65C99.78 436.33 99.78 436.17 100.1 436.01C108.79 434.41 127.14 422.89 127.3 422.89C127.46 422.89 127.79 422.89 127.95 422.89C128.11 423.05 128.11 423.21 127.95 423.53C127.95 423.53 118.93 437.77 107.67 445.3C107.67 445.3 107.51 445.3 107.35 445.3L107.51 445.3Z" fill="#101720" fill-opacity="1.000000" fill-rule="nonzero"/>
	</g>
	<rect id="Login and Signup Illustration Image" rx="0.000000" width="559.000000" height="919.000000" transform="translate(0.500000 0.500000)" stroke="#DBE5E6" stroke-opacity="0" stroke-width="1.000000"/>
</svg>
